<svg width="318" height="162" viewBox="0 0 318 162" fill="none" xmlns="http://www.w3.org/2000/svg">
<path d="M317.243 0H0.185791V162H317.243V0Z" fill="#1D5AA9"/>
<path d="M301.893 111.778H149.127V118.539H301.893V111.778Z" fill="white"/>
<path d="M102.437 16.1526H14.0713V148.561H102.437V16.1526Z" fill="white"/>
<path fill-rule="evenodd" clip-rule="evenodd" d="M82.2808 82.9184C81.2345 87.4523 78.9444 91.3948 75.7659 94.5685H93.0601C96.3965 76.5513 84.5709 57.4696 65.1643 53.2314C69.1127 54.2762 86.091 62.3189 82.3005 82.9184" fill="#1F5BA9"/>
<path fill-rule="evenodd" clip-rule="evenodd" d="M22.1257 23.6831V94.5888H29.7067C34.2672 94.5888 35.3135 94.5888 37.8997 94.2734C48.6592 92.5979 58.5303 83.8258 59.5964 76.0985C61.2745 66.8534 56.26 58.8304 46.5468 56.8592C46.4086 56.8592 46.2507 56.7015 45.9545 56.7015C45.6584 56.7015 40.94 56.7015 37.3075 55.7947C37.3075 55.7947 35.3332 57.4703 36.0834 60.4863C36.0834 60.4863 31.3848 55.4793 34.4054 48.6588C34.4054 48.6588 35.7676 45.4851 40.9203 42.2917V42.1537C42.2825 40.4781 45.6189 37.7578 50.3176 35.4909C52.6077 34.4264 56.6943 32.9085 61.3929 32.4552C82.3394 30.4839 93.553 46.5496 93.553 46.5496V23.6831H22.106H22.1257Z" fill="#1F5BA9"/>
<path fill-rule="evenodd" clip-rule="evenodd" d="M73.8507 40.9308C63.6637 39.5706 55.1746 42.1333 48.5017 46.8248C48.5017 46.8248 50.4759 45.6224 53.5162 44.5776C53.9703 46.5489 55.6484 48.185 57.7608 48.6384C60.8011 49.2297 63.6835 47.4359 64.1375 44.7156C64.2955 44.1242 64.2955 43.3554 64.1375 42.5866C83.4257 41.9953 93.5929 56.6416 93.5929 56.6416V50.2942C90.7105 47.4162 82.8137 41.8376 73.8705 40.9308" fill="#1F5BA9"/>
<path fill-rule="evenodd" clip-rule="evenodd" d="M27.4759 125.32H30.378L35.6886 139.434H32.4904L31.2861 136.103H26.39L25.1858 139.434H22.1257L27.4759 125.32ZM30.5162 133.698L28.8381 128.671L27.16 133.698H30.5162Z" fill="#1F5BA9"/>
<path fill-rule="evenodd" clip-rule="evenodd" d="M37.3081 125.32H42.6582C44.7904 125.32 46.4685 125.931 47.7122 126.995C48.9363 128.218 49.5483 130.031 49.5483 132.318C49.5483 133.54 49.4101 134.447 49.0942 135.353C48.6204 136.26 48.1663 137.029 47.5543 137.62C46.9423 138.231 46.1724 138.685 45.2642 139C44.3561 139.316 43.29 139.454 42.066 139.454H37.3278V125.34L37.3081 125.32ZM42.2042 136.871C42.9741 136.871 43.5861 136.871 44.1981 136.576C44.6719 136.418 45.126 136.103 45.4221 135.649C45.8762 135.196 46.0342 134.742 46.1921 134.131C46.35 133.678 46.508 133.087 46.508 132.318C46.508 131.549 46.3698 130.938 46.3698 130.484C46.2118 129.893 45.896 129.42 45.5998 128.967C45.284 128.671 44.9878 128.375 44.3758 128.06C43.902 127.922 43.3097 127.744 42.6977 127.744H40.2497V136.852H42.2239L42.2042 136.871Z" fill="#1F5BA9"/>
<path fill-rule="evenodd" clip-rule="evenodd" d="M51.7395 125.32H54.4639L60.2286 134.585V125.32H63.0913V139.454H60.505L54.6219 130.189V139.454H51.7395V125.32Z" fill="#1F5BA9"/>
<path fill-rule="evenodd" clip-rule="evenodd" d="M72.3702 139.749C71.3239 139.749 70.2578 139.611 69.5076 139.296C68.7574 138.981 68.0072 138.389 67.3952 137.778C66.8029 137.187 66.3488 136.418 66.0527 135.511C65.7368 134.604 65.5986 133.54 65.5986 132.318C65.5986 131.253 65.7368 130.189 66.0527 129.282C66.3488 128.356 66.8029 127.607 67.3952 126.995C67.9874 126.227 68.7574 125.773 69.5076 125.478C70.4157 125.182 71.3041 124.886 72.3702 124.886C73.4363 124.886 74.3444 125.202 75.0749 125.478C75.983 125.793 76.5753 126.246 77.1873 126.995C77.7796 127.607 78.2337 128.356 78.5298 129.282C78.8457 130.189 78.9838 131.253 78.9838 132.318C78.9838 133.54 78.8457 134.604 78.5298 135.511C78.2337 136.418 77.7796 137.187 77.1873 137.778C76.7332 138.389 75.983 139 75.0749 139.296C74.3247 139.611 73.4165 139.749 72.3702 139.749ZM72.3702 137.325C73.5745 137.325 74.4826 136.871 75.0749 135.965C75.6672 135.196 75.983 133.993 75.983 132.318C75.983 130.8 75.6672 129.578 75.0749 128.829C74.4826 127.902 73.5745 127.449 72.3702 127.449C71.0277 127.449 70.1196 127.902 69.5076 128.829C68.9153 129.578 68.5994 130.8 68.5994 132.318C68.5994 133.993 68.9153 135.196 69.5076 135.965C70.0999 136.871 71.008 137.325 72.3702 137.325Z" fill="#1F5BA9"/>
<path fill-rule="evenodd" clip-rule="evenodd" d="M93.4352 134.605C93.297 135.354 93.1194 135.965 92.843 136.576C92.5271 137.345 92.2507 137.798 91.6387 138.251C91.1846 138.705 90.5923 139.178 89.8224 139.474C89.2301 139.631 88.322 139.789 87.3941 139.789C86.3478 139.789 85.4396 139.651 84.5315 139.336C83.7616 138.882 83.1693 138.429 82.5573 137.818C81.965 137.226 81.6491 136.32 81.353 135.393C81.0371 134.486 80.8989 133.58 80.8989 132.357C80.8989 131.293 81.0371 130.228 81.353 129.322C81.6491 128.395 82.1032 127.646 82.6955 127.035C83.1495 126.266 83.9195 125.813 84.6697 125.517C85.5778 125.221 86.486 124.926 87.3744 124.926C88.2628 124.926 89.0525 125.064 89.8027 125.379C90.3949 125.517 91.0069 125.833 91.461 126.286C91.9151 126.739 92.2309 127.212 92.5073 127.804C92.8232 128.395 92.9614 129.026 93.0996 129.775L90.237 130.228C90.0988 129.322 89.7829 128.711 89.3288 128.257C88.8748 127.804 88.2825 127.488 87.3546 127.488C86.3083 127.488 85.4002 127.942 84.8079 128.868C84.1959 129.617 83.8997 130.84 83.8997 132.357C83.8997 134.033 84.3538 135.235 84.9461 136.004C85.5383 136.911 86.2885 137.364 87.3546 137.364C88.2628 137.364 89.0327 137.049 89.3288 136.596C89.7829 136.142 90.0988 135.373 90.237 134.624H93.3957L93.4352 134.605Z" fill="#1F5BA9"/>
<path fill-rule="evenodd" clip-rule="evenodd" d="M37.3667 116.272V103.833H40.2689V118.834H27.93C25.9558 118.834 24.5738 118.381 23.6657 117.612C22.5996 116.705 22.1455 115.483 22.1455 113.67C22.1455 112.743 22.4614 111.994 22.7575 111.245C23.2116 110.476 23.8039 109.885 24.5738 109.412C25.3437 108.958 26.2519 108.821 27.318 108.821L27.6338 111.245C26.706 111.383 25.9558 111.561 25.6399 112.014C25.1858 112.31 25.0476 112.921 25.0476 113.689C25.0476 114.596 25.1858 115.365 25.6399 115.661C26.094 116.114 26.8639 116.272 27.93 116.272H37.3667ZM34.6226 109.924V110.969H30.8123V109.924H31.2664V109.313C31.2664 108.86 31.4243 108.407 31.7205 108.091C32.0364 107.776 32.3325 107.638 32.9445 107.638C33.3986 107.638 33.8526 107.776 33.9908 108.091C34.3067 108.249 34.4646 108.545 34.4646 109.156L33.5368 109.294C33.5368 108.978 33.5368 108.84 33.3986 108.702H32.9445C32.4707 108.702 32.3325 108.84 32.3325 109.294V109.905H34.6226V109.924Z" fill="#1F5BA9"/>
<path fill-rule="evenodd" clip-rule="evenodd" d="M68.4609 108.407V116.292H52.1933V113.256C52.1933 111.758 51.7393 110.378 50.9693 109.629C50.1994 108.86 48.9951 108.407 47.475 108.407C45.9548 108.407 44.7308 108.86 43.8227 109.767C43.0527 110.536 42.5986 111.738 42.5986 113.256C42.5986 115.089 43.0527 116.587 44.2767 117.494C45.3428 118.421 46.863 118.874 48.9951 118.874H49.311V119.327C49.311 120.372 49.153 121.003 48.8569 121.456L50.3771 123.723C50.6732 123.585 50.8311 123.408 50.9693 123.132C51.7393 122.363 52.1933 120.55 52.1933 118.894H71.2051V108.446H68.4609V108.407ZM49.311 116.292H48.4028C46.4286 116.292 45.5007 115.227 45.5007 113.256C45.5007 112.507 45.6587 111.896 45.9548 111.442C46.2707 110.989 46.7248 110.851 47.475 110.851C47.929 110.851 48.2449 110.851 48.541 110.989C48.8569 111.304 48.9951 111.442 49.1333 111.896C49.2912 112.349 49.2912 113.256 49.2912 114.025V116.311L49.311 116.292Z" fill="#1F5BA9"/>
<path d="M71.205 104.149H68.4016V106.948H71.205V104.149Z" fill="#1F5BA9"/>
<path fill-rule="evenodd" clip-rule="evenodd" d="M84.6695 116.272V114.774C84.6695 113.552 84.5116 112.487 84.0575 111.896C83.4653 111.304 82.6953 110.989 81.7674 110.989C80.9975 110.989 80.4052 111.127 79.6353 111.442L78.8653 108.86C79.7735 108.545 80.8396 108.407 81.9056 108.407C83.7219 108.407 85.1039 108.86 86.1699 109.905C87.0781 110.969 87.5322 112.487 87.5322 114.458V118.854H73.3967V116.272H84.6498H84.6695Z" fill="#1F5BA9"/>
<path fill-rule="evenodd" clip-rule="evenodd" d="M93.4347 103.064V104.149H89.6047V103.064H90.0588V102.453C90.0588 101.98 90.2167 101.527 90.5326 101.211C90.8485 101.073 91.1446 100.896 91.7566 100.896C92.2107 100.896 92.6845 100.896 92.8227 101.211C93.1386 101.369 93.2965 101.822 93.2965 102.296L92.3686 102.453C92.3686 102.138 92.2107 101.98 92.2107 101.98C92.0725 101.822 91.8948 101.822 91.7566 101.822C91.2828 101.822 91.1446 101.98 91.1446 102.591V103.064H93.4347Z" fill="#1F5BA9"/>
<path d="M92.8622 105.174H90.0588V118.855H92.8622V105.174Z" fill="#1F5BA9"/>
<path d="M149.877 82.8402V15.0491H163.598V82.8205H149.877V82.8402Z" fill="white"/>
<path d="M220.081 57.9234L233.367 62.1221C231.334 69.5143 227.938 75.0141 223.2 78.6018C218.462 82.1894 212.441 83.9832 205.176 83.9832C196.173 83.9832 188.75 80.9081 182.946 74.7578C177.142 68.6075 174.24 60.21 174.24 49.5456C174.24 38.2503 177.161 29.498 182.985 23.2492C188.809 17.02 196.489 13.8857 206.005 13.8857C214.296 13.8857 221.048 16.3301 226.221 21.2385C229.301 24.1362 231.63 28.2955 233.17 33.7165L219.607 36.9493C218.798 33.4405 217.139 30.661 214.573 28.6307C212.026 26.6003 208.946 25.5752 205.294 25.5752C200.26 25.5752 196.173 27.3691 193.054 30.9764C189.935 34.5838 188.355 40.4187 188.355 48.5008C188.355 57.0757 189.895 63.1669 192.995 66.8137C196.094 70.4605 200.102 72.2741 205.037 72.2741C208.69 72.2741 211.809 71.111 214.435 68.8047C217.041 66.4786 218.936 62.8515 220.081 57.884V57.9234Z" fill="white"/>
<path d="M262.448 82.8403L238.185 15.0688H253.05L270.226 65.2371L286.849 15.0688H301.379L277.077 82.8403H262.448Z" fill="white"/>
<path d="M148.949 91.6121H152.049V102.592H148.949V91.6121Z" fill="white"/>
<path d="M154.299 91.6121H157.182L160.972 97.6835V91.6121H163.894V102.592H160.972L157.201 96.5599V102.592H154.28V91.6121H154.299Z" fill="white"/>
<path d="M165.236 97.4077H169.283V99.7732H165.236V97.4077Z" fill="white"/>
<path d="M177.299 98.0975L180.024 98.9846C179.846 99.8125 179.55 100.522 179.155 101.074C178.76 101.626 178.267 102.06 177.694 102.336C177.122 102.631 176.372 102.769 175.483 102.769C174.397 102.769 173.509 102.592 172.818 102.257C172.127 101.902 171.535 101.311 171.021 100.424C170.528 99.5562 170.271 98.4326 170.271 97.0724C170.271 95.2589 170.706 93.8593 171.594 92.8737C172.482 91.8881 173.726 91.3953 175.345 91.3953C176.609 91.3953 177.596 91.691 178.326 92.2429C179.057 92.7948 179.59 93.6622 179.945 94.8252L177.201 95.4955C177.102 95.1603 177.003 94.9238 176.905 94.7661C176.747 94.4901 176.53 94.293 176.273 94.155C176.016 94.017 175.74 93.9382 175.424 93.9382C174.733 93.9382 174.18 94.2339 173.805 94.8647C173.529 95.318 173.391 96.0474 173.391 97.033C173.391 98.2552 173.548 99.0831 173.884 99.5365C174.22 99.9899 174.694 100.207 175.306 100.207C175.918 100.207 176.332 100.029 176.648 99.6548C176.944 99.3 177.161 98.7677 177.299 98.0581V98.0975Z" fill="white"/>
<path d="M181.129 97.112C181.129 95.3182 181.583 93.9186 182.491 92.933C183.399 91.9276 184.683 91.4348 186.302 91.4348C187.92 91.4348 189.243 91.9276 190.151 92.9132C191.059 93.8792 191.514 95.259 191.514 97.0332C191.514 98.3145 191.316 99.3592 190.921 100.187C190.526 101.015 189.954 101.666 189.204 102.119C188.453 102.572 187.526 102.809 186.42 102.809C185.314 102.809 184.347 102.612 183.617 102.218C182.866 101.823 182.274 101.192 181.8 100.345C181.346 99.4972 181.109 98.413 181.109 97.1317L181.129 97.112ZM184.229 97.1317C184.229 98.2356 184.406 99.0241 184.781 99.5169C185.157 100.01 185.67 100.246 186.321 100.246C186.973 100.246 187.486 100.01 187.861 99.5366C188.217 99.0635 188.414 98.2159 188.414 96.9937C188.414 95.9687 188.217 95.1999 187.841 94.7268C187.466 94.2537 186.933 94.0171 186.282 94.0171C185.63 94.0171 185.157 94.2537 184.781 94.7465C184.406 95.2393 184.209 96.0278 184.209 97.1514L184.229 97.1317Z" fill="white"/>
<path d="M199.707 91.6121H202.806V98.1566C202.806 98.8071 202.707 99.4182 202.53 99.9899C202.352 100.562 202.056 101.074 201.661 101.508C201.266 101.941 200.852 102.237 200.417 102.414C199.805 102.671 199.095 102.789 198.246 102.789C197.752 102.789 197.219 102.75 196.646 102.671C196.074 102.592 195.58 102.454 195.186 102.237C194.81 102.02 194.435 101.705 194.119 101.291C193.804 100.877 193.567 100.463 193.448 100.029C193.251 99.3393 193.152 98.7086 193.152 98.1763V91.6318H196.232V98.334C196.232 98.9451 196.39 99.3985 196.686 99.7336C197.002 100.069 197.416 100.246 197.949 100.246C198.482 100.246 198.897 100.088 199.213 99.7533C199.529 99.4182 199.667 98.9451 199.667 98.334V91.6318L199.707 91.6121Z" fill="white"/>
<path d="M204.879 91.6121H207.761L211.552 97.6835V91.6121H214.474V102.592H211.552L207.781 96.5599V102.592H204.859V91.6121H204.879Z" fill="white"/>
<path d="M215.817 91.6121H225.234V94.3324H222.075V102.612H218.975V94.3324H215.817V91.6121Z" fill="white"/>
<path d="M226.675 102.612V91.6318H231.847C232.795 91.6318 233.525 91.7107 234.038 91.9078C234.532 92.0852 234.947 92.4203 235.262 92.9131C235.578 93.406 235.736 93.9973 235.736 94.707C235.736 95.3181 235.618 95.8503 235.381 96.284C235.144 96.7177 234.808 97.0922 234.394 97.3682C234.137 97.5456 233.762 97.6836 233.308 97.8018C233.663 97.9398 233.94 98.0778 234.117 98.2158C234.236 98.3144 234.394 98.5115 234.611 98.7875C234.828 99.0831 234.966 99.3 235.045 99.4774L236.546 102.671H233.051L231.393 99.3C231.176 98.8663 230.998 98.5903 230.84 98.4523C230.623 98.2749 230.366 98.1961 230.09 98.1961H229.814V102.651H226.694L226.675 102.612ZM229.794 96.0671H231.097C231.235 96.0671 231.511 96.0277 231.906 95.9094C232.123 95.87 232.281 95.7517 232.42 95.5546C232.538 95.3772 232.597 95.1604 232.597 94.9238C232.597 94.569 232.498 94.293 232.301 94.1156C232.084 93.9185 231.709 93.8199 231.136 93.8199H229.774V96.0474L229.794 96.0671Z" fill="white"/>
<path d="M235.914 91.6121H239.368L241.382 95.318L243.396 91.6121H246.811L242.902 97.9989V102.592H239.803V97.9989L235.894 91.6121H235.914Z" fill="white"/>
<path d="M251.529 91.6121H254.767L257.018 99.5168L259.249 91.6121H262.388L258.656 102.592H255.3L251.51 91.6121H251.529Z" fill="white"/>
<path d="M268.745 100.778H265.231L264.738 102.592H261.579L265.35 91.6121H268.745L272.516 102.592H269.278L268.765 100.778H268.745ZM268.114 98.4129L267.008 94.4507L265.902 98.4129H268.114Z" fill="white"/>
<path d="M273.483 91.6121H276.582V99.8913H281.419V102.612H273.483V91.6318V91.6121Z" fill="white"/>
<path d="M288.981 91.6121H292.081V98.1566C292.081 98.8071 291.982 99.4182 291.804 99.9899C291.627 100.562 291.331 101.074 290.936 101.508C290.541 101.941 290.126 102.237 289.692 102.414C289.08 102.671 288.369 102.789 287.52 102.789C287.027 102.789 286.494 102.75 285.921 102.671C285.349 102.592 284.855 102.454 284.46 102.237C284.085 102.02 283.71 101.705 283.394 101.291C283.078 100.877 282.841 100.463 282.723 100.029C282.525 99.3393 282.427 98.7086 282.427 98.1763V91.6318H285.507V98.334C285.507 98.9451 285.664 99.3985 285.961 99.7336C286.277 100.069 286.691 100.246 287.224 100.246C287.757 100.246 288.172 100.088 288.488 99.7533C288.804 99.4182 288.942 98.9451 288.942 98.334V91.6318L288.981 91.6121Z" fill="white"/>
<path d="M294.134 91.6121H302.426V93.9578H297.233V95.7123H302.07V97.9398H297.233V100.108H302.583V102.592H294.134V91.6121Z" fill="white"/>
<path d="M162.651 140.065L167.646 141.74C167.31 143.298 166.777 144.618 166.066 145.663C165.356 146.708 164.448 147.496 163.382 148.029C162.315 148.561 160.953 148.837 159.295 148.837C157.301 148.837 155.643 148.522 154.379 147.871C153.096 147.221 152.01 146.077 151.082 144.461C150.174 142.825 149.7 140.735 149.7 138.172C149.7 134.782 150.51 132.16 152.128 130.327C153.747 128.494 156.057 127.587 159.019 127.587C161.348 127.587 163.164 128.099 164.507 129.144C165.83 130.189 166.817 131.805 167.468 133.974L162.434 135.235C162.256 134.605 162.079 134.151 161.881 133.855C161.565 133.363 161.17 132.988 160.716 132.732C160.243 132.476 159.749 132.357 159.176 132.357C157.873 132.357 156.886 132.929 156.195 134.092C155.682 134.959 155.406 136.3 155.406 138.153C155.406 140.42 155.722 141.997 156.353 142.844C156.965 143.692 157.834 144.106 158.959 144.106C160.085 144.106 160.874 143.771 161.427 143.081C161.98 142.391 162.394 141.405 162.651 140.104V140.065Z" fill="white"/>
<path d="M170.41 127.922H185.69V132.298H176.115V135.57H184.979V139.769H176.115V143.81H185.967V148.462H170.41V127.902V127.922Z" fill="white"/>
<path d="M189.105 148.482V127.922H198.621C200.378 127.922 201.74 128.079 202.668 128.414C203.596 128.75 204.346 129.38 204.919 130.287C205.491 131.194 205.787 132.298 205.787 133.619C205.787 134.762 205.57 135.747 205.116 136.575C204.682 137.403 204.09 138.074 203.32 138.586C202.826 138.921 202.175 139.197 201.326 139.394C201.997 139.651 202.49 139.907 202.806 140.163C203.024 140.321 203.32 140.676 203.714 141.247C204.109 141.819 204.386 142.213 204.524 142.529L207.288 148.482H200.852L197.792 142.193C197.417 141.385 197.061 140.853 196.765 140.597C196.351 140.281 195.897 140.124 195.364 140.124H194.85V148.462H189.125L189.105 148.482ZM194.83 136.26H197.239C197.496 136.26 197.989 136.161 198.739 135.984C199.115 135.905 199.43 135.688 199.648 135.334C199.884 134.998 200.003 134.584 200.003 134.151C200.003 133.481 199.825 132.968 199.43 132.613C199.055 132.258 198.345 132.081 197.298 132.081H194.791V136.26H194.83Z" fill="white"/>
<path d="M207.564 127.922H224.898V133.007H219.074V148.482H213.368V133.007H207.544V127.922H207.564Z" fill="white"/>
<path d="M227.702 127.922H233.407V148.482H227.702V127.922Z" fill="white"/>
<path d="M237.533 127.922H251.629V132.337H243.258V135.925H250.405V140.084H243.258V148.482H237.533V127.922Z" fill="white"/>
<path d="M254.926 127.922H260.632V148.482H254.926V127.922Z" fill="white"/>
<path d="M264.719 127.922H279.999V132.298H270.424V135.57H279.288V139.769H270.424V143.81H280.275V148.462H264.719V127.902V127.922Z" fill="white"/>
<path d="M283.434 127.922H291.903C293.581 127.922 294.924 128.178 295.95 128.671C296.977 129.183 297.826 129.893 298.497 130.859C299.168 131.805 299.662 132.889 299.958 134.151C300.254 135.412 300.412 136.733 300.412 138.133C300.412 140.34 300.175 142.036 299.741 143.238C299.287 144.46 298.655 145.466 297.865 146.294C297.056 147.102 296.207 147.654 295.299 147.93C294.035 148.304 292.91 148.482 291.903 148.482H283.434V127.922ZM289.12 132.574V143.81H290.521C291.706 143.81 292.555 143.672 293.068 143.376C293.562 143.081 293.956 142.568 294.253 141.839C294.529 141.109 294.667 139.907 294.667 138.271C294.667 136.083 294.351 134.604 293.72 133.796C293.088 132.988 292.022 132.593 290.541 132.593H289.12V132.574Z" fill="white"/>
</svg>
