<svg width="18" height="19" viewBox="0 0 18 19" fill="none" xmlns="http://www.w3.org/2000/svg">
<path d="M18 9.48389C18 4.51281 13.9711 0.483887 9 0.483887C4.02892 0.483887 0 4.51281 0 9.48389C0 13.9769 3.29062 17.6999 7.59375 18.3749V12.0854H5.30858V9.48389H7.59375V7.50107C7.59375 5.24579 8.93674 3.99951 10.9934 3.99951C11.9777 3.99951 13.0078 4.17529 13.0078 4.17529V6.39014H11.8723C10.7543 6.39014 10.4062 7.08449 10.4062 7.79639V9.48389H12.9023L12.5033 12.0854H10.4062V18.3749C14.7094 17.6999 18 13.9769 18 9.48389Z" fill="#1877F2"/>
<path d="M12.5033 12.0854L12.9023 9.48389H10.4063V7.79639C10.4063 7.08449 10.7543 6.39014 11.8723 6.39014H13.0078V4.17529C13.0078 4.17529 11.9777 3.99951 10.9934 3.99951C8.93676 3.99951 7.59377 5.24579 7.59377 7.50107V9.48389H5.30859V12.0854H7.59377V18.3749C8.05254 18.447 8.52189 18.4839 9.00002 18.4839C9.47814 18.4839 9.94749 18.447 10.4063 18.3749V12.0854H12.5033Z" fill="white"/>
</svg>
