<svg width="18" height="19" viewBox="0 0 18 19" fill="none" xmlns="http://www.w3.org/2000/svg">
<path d="M9.00066 0.483887C6.55638 0.483887 6.24963 0.494574 5.28962 0.538262C4.33148 0.582137 3.67748 0.733824 3.10522 0.956387C2.51328 1.18626 2.01115 1.49376 1.51089 1.9942C1.01026 2.49445 0.702757 2.99657 0.47213 3.58832C0.249003 4.16076 0.097126 4.81495 0.0540006 5.7727C0.0112501 6.7327 0 7.03964 0 9.48389C0 11.9281 0.0108753 12.2339 0.0543757 13.1939C0.0984387 14.1521 0.250128 14.8061 0.472505 15.3783C0.70257 15.9703 1.01007 16.4724 1.51052 16.9726C2.01058 17.4733 2.51271 17.7815 3.10428 18.0114C3.67691 18.2339 4.33111 18.3856 5.28906 18.4295C6.24907 18.4732 6.55563 18.4839 8.99972 18.4839C11.4442 18.4839 11.75 18.4732 12.71 18.4295C13.6681 18.3856 14.3229 18.2339 14.8955 18.0114C15.4873 17.7815 15.9887 17.4733 16.4887 16.9726C16.9894 16.4724 17.2969 15.9703 17.5275 15.3785C17.7487 14.8061 17.9006 14.1519 17.9456 13.1941C17.9888 12.2341 18 11.9281 18 9.48389C18 7.03964 17.9888 6.73289 17.9456 5.77289C17.9006 4.81476 17.7487 4.16076 17.5275 3.58851C17.2969 2.99657 16.9894 2.49445 16.4887 1.9942C15.9881 1.49357 15.4875 1.18607 14.895 0.956387C14.3212 0.733824 13.6668 0.582137 12.7087 0.538262C11.7487 0.494574 11.4431 0.483887 8.99803 0.483887H9.00066ZM8.19327 2.10576C8.4329 2.10539 8.70028 2.10576 9.00066 2.10576C11.4037 2.10576 11.6885 2.11439 12.6374 2.15751C13.515 2.19764 13.9912 2.34426 14.3085 2.46745C14.7285 2.63057 15.0279 2.82557 15.3427 3.14057C15.6577 3.45557 15.8527 3.75557 16.0162 4.17557C16.1394 4.49245 16.2862 4.9687 16.3262 5.8462C16.3693 6.79495 16.3787 7.07995 16.3787 9.48182C16.3787 11.8837 16.3693 12.1687 16.3262 13.1174C16.286 13.9949 16.1394 14.4712 16.0162 14.7881C15.8531 15.2081 15.6577 15.5071 15.3427 15.822C15.0277 16.137 14.7287 16.3319 14.3085 16.4951C13.9916 16.6188 13.515 16.7651 12.6374 16.8052C11.6887 16.8483 11.4037 16.8577 9.00066 16.8577C6.59744 16.8577 6.31263 16.8483 5.36387 16.8052C4.48636 16.7647 4.0101 16.6181 3.69266 16.4949C3.27266 16.3318 2.97266 16.1368 2.65765 15.8218C2.34265 15.5068 2.14765 15.2075 1.98415 14.7873C1.86096 14.4704 1.71414 13.9942 1.67421 13.1167C1.63108 12.1679 1.62245 11.8829 1.62245 9.47957C1.62245 7.0762 1.63108 6.7927 1.67421 5.84395C1.71433 4.96645 1.86096 4.4902 1.98415 4.17295C2.14727 3.75295 2.34265 3.45295 2.65765 3.13795C2.97266 2.82295 3.27266 2.62795 3.69266 2.46445C4.00992 2.3407 4.48636 2.19445 5.36387 2.15414C6.19413 2.11664 6.51588 2.10539 8.19327 2.10351V2.10576Z" fill="url(#paint0_radial_7367_1620)"/>
<path d="M13.7855 3.57803C13.5719 3.57803 13.363 3.64138 13.1854 3.76007C13.0078 3.87876 12.8694 4.04745 12.7876 4.24482C12.7059 4.44218 12.6845 4.65935 12.7262 4.86886C12.7679 5.07837 12.8708 5.27081 13.0219 5.42184C13.173 5.57286 13.3655 5.67569 13.575 5.71732C13.7845 5.75895 14.0017 5.73751 14.199 5.65571C14.3964 5.57391 14.565 5.43543 14.6837 5.25777C14.8023 5.08012 14.8656 4.87127 14.8655 4.65765C14.8655 4.0614 14.3817 3.57765 13.7855 3.57765V3.57803Z" fill="url(#paint1_radial_7367_1620)"/>
<path fill-rule="evenodd" clip-rule="evenodd" d="M8.9813 4.8399C6.42884 4.8399 4.35938 6.90934 4.35938 9.46178C4.35938 12.0142 6.42884 14.0827 8.9813 14.0827C11.5338 14.0827 13.6027 12.0142 13.6027 9.46178C13.6027 6.90934 11.5338 4.8399 8.9813 4.8399ZM9 12.437C10.631 12.437 11.9531 11.1149 11.9531 9.4839C11.9531 7.85294 10.631 6.53078 9 6.53078C7.36904 6.53078 6.04688 7.85294 6.04688 9.4839C6.04688 11.1149 7.36904 12.437 9 12.437Z" fill="url(#paint2_radial_7367_1620)"/>
<path d="M9.00066 0.483887C6.55638 0.483887 6.24963 0.494574 5.28962 0.538262C4.33148 0.582137 3.67748 0.733824 3.10522 0.956387C2.51328 1.18626 2.01115 1.49376 1.51089 1.9942C1.01026 2.49445 0.702757 2.99657 0.47213 3.58832C0.249003 4.16076 0.097126 4.81495 0.0540006 5.7727C0.0112501 6.7327 0 7.03964 0 9.48389C0 11.9281 0.0108753 12.2339 0.0543757 13.1939C0.0984387 14.1521 0.250128 14.8061 0.472505 15.3783C0.70257 15.9703 1.01007 16.4724 1.51052 16.9726C2.01058 17.4733 2.51271 17.7815 3.10428 18.0114C3.67691 18.2339 4.33111 18.3856 5.28906 18.4295C6.24907 18.4732 6.55563 18.4839 8.99972 18.4839C11.4442 18.4839 11.75 18.4732 12.71 18.4295C13.6681 18.3856 14.3229 18.2339 14.8955 18.0114C15.4873 17.7815 15.9887 17.4733 16.4887 16.9726C16.9894 16.4724 17.2969 15.9703 17.5275 15.3785C17.7487 14.8061 17.9006 14.1519 17.9456 13.1941C17.9888 12.2341 18 11.9281 18 9.48389C18 7.03964 17.9888 6.73289 17.9456 5.77289C17.9006 4.81476 17.7487 4.16076 17.5275 3.58851C17.2969 2.99657 16.9894 2.49445 16.4887 1.9942C15.9881 1.49357 15.4875 1.18607 14.895 0.956387C14.3212 0.733824 13.6668 0.582137 12.7087 0.538262C11.7487 0.494574 11.4431 0.483887 8.99803 0.483887H9.00066ZM8.19327 2.10576C8.4329 2.10539 8.70028 2.10576 9.00066 2.10576C11.4037 2.10576 11.6885 2.11439 12.6374 2.15751C13.515 2.19764 13.9912 2.34426 14.3085 2.46745C14.7285 2.63057 15.0279 2.82557 15.3427 3.14057C15.6577 3.45557 15.8527 3.75557 16.0162 4.17557C16.1394 4.49245 16.2862 4.9687 16.3262 5.8462C16.3693 6.79495 16.3787 7.07995 16.3787 9.48182C16.3787 11.8837 16.3693 12.1687 16.3262 13.1174C16.286 13.9949 16.1394 14.4712 16.0162 14.7881C15.8531 15.2081 15.6577 15.5071 15.3427 15.822C15.0277 16.137 14.7287 16.3319 14.3085 16.4951C13.9916 16.6188 13.515 16.7651 12.6374 16.8052C11.6887 16.8483 11.4037 16.8577 9.00066 16.8577C6.59744 16.8577 6.31263 16.8483 5.36387 16.8052C4.48636 16.7647 4.0101 16.6181 3.69266 16.4949C3.27266 16.3318 2.97266 16.1368 2.65765 15.8218C2.34265 15.5068 2.14765 15.2075 1.98415 14.7873C1.86096 14.4704 1.71414 13.9942 1.67421 13.1167C1.63108 12.1679 1.62245 11.8829 1.62245 9.47957C1.62245 7.0762 1.63108 6.7927 1.67421 5.84395C1.71433 4.96645 1.86096 4.4902 1.98415 4.17295C2.14727 3.75295 2.34265 3.45295 2.65765 3.13795C2.97266 2.82295 3.27266 2.62795 3.69266 2.46445C4.00992 2.3407 4.48636 2.19445 5.36387 2.15414C6.19413 2.11664 6.51588 2.10539 8.19327 2.10351V2.10576Z" fill="url(#paint3_radial_7367_1620)"/>
<path d="M13.7855 3.57803C13.5719 3.57803 13.363 3.64138 13.1854 3.76007C13.0078 3.87876 12.8694 4.04745 12.7876 4.24482C12.7059 4.44218 12.6845 4.65935 12.7262 4.86886C12.7679 5.07837 12.8708 5.27081 13.0219 5.42184C13.173 5.57286 13.3655 5.67569 13.575 5.71732C13.7845 5.75895 14.0017 5.73751 14.199 5.65571C14.3964 5.57391 14.565 5.43543 14.6837 5.25777C14.8023 5.08012 14.8656 4.87127 14.8655 4.65765C14.8655 4.0614 14.3817 3.57765 13.7855 3.57765V3.57803Z" fill="url(#paint4_radial_7367_1620)"/>
<path fill-rule="evenodd" clip-rule="evenodd" d="M8.9813 4.8399C6.42884 4.8399 4.35938 6.90934 4.35938 9.46178C4.35938 12.0142 6.42884 14.0827 8.9813 14.0827C11.5338 14.0827 13.6027 12.0142 13.6027 9.46178C13.6027 6.90934 11.5338 4.8399 8.9813 4.8399ZM9 12.437C10.631 12.437 11.9531 11.1149 11.9531 9.4839C11.9531 7.85294 10.631 6.53078 9 6.53078C7.36904 6.53078 6.04688 7.85294 6.04688 9.4839C6.04688 11.1149 7.36904 12.437 9 12.437Z" fill="url(#paint5_radial_7367_1620)"/>
<defs>
<radialGradient id="paint0_radial_7367_1620" cx="0" cy="0" r="1" gradientUnits="userSpaceOnUse" gradientTransform="translate(4.78127 19.8703) rotate(-90) scale(17.8393 16.592)">
<stop stop-color="#FFDD55"/>
<stop offset="0.1" stop-color="#FFDD55"/>
<stop offset="0.5" stop-color="#FF543E"/>
<stop offset="1" stop-color="#C837AB"/>
</radialGradient>
<radialGradient id="paint1_radial_7367_1620" cx="0" cy="0" r="1" gradientUnits="userSpaceOnUse" gradientTransform="translate(4.78127 19.8703) rotate(-90) scale(17.8393 16.592)">
<stop stop-color="#FFDD55"/>
<stop offset="0.1" stop-color="#FFDD55"/>
<stop offset="0.5" stop-color="#FF543E"/>
<stop offset="1" stop-color="#C837AB"/>
</radialGradient>
<radialGradient id="paint2_radial_7367_1620" cx="0" cy="0" r="1" gradientUnits="userSpaceOnUse" gradientTransform="translate(4.78127 19.8703) rotate(-90) scale(17.8393 16.592)">
<stop stop-color="#FFDD55"/>
<stop offset="0.1" stop-color="#FFDD55"/>
<stop offset="0.5" stop-color="#FF543E"/>
<stop offset="1" stop-color="#C837AB"/>
</radialGradient>
<radialGradient id="paint3_radial_7367_1620" cx="0" cy="0" r="1" gradientUnits="userSpaceOnUse" gradientTransform="translate(-3.0151 1.78058) rotate(78.6806) scale(7.97425 32.8702)">
<stop stop-color="#3771C8"/>
<stop offset="0.128" stop-color="#3771C8"/>
<stop offset="1" stop-color="#6600FF" stop-opacity="0"/>
</radialGradient>
<radialGradient id="paint4_radial_7367_1620" cx="0" cy="0" r="1" gradientUnits="userSpaceOnUse" gradientTransform="translate(-3.0151 1.78058) rotate(78.6806) scale(7.97425 32.8702)">
<stop stop-color="#3771C8"/>
<stop offset="0.128" stop-color="#3771C8"/>
<stop offset="1" stop-color="#6600FF" stop-opacity="0"/>
</radialGradient>
<radialGradient id="paint5_radial_7367_1620" cx="0" cy="0" r="1" gradientUnits="userSpaceOnUse" gradientTransform="translate(-3.0151 1.78058) rotate(78.6806) scale(7.97425 32.8702)">
<stop stop-color="#3771C8"/>
<stop offset="0.128" stop-color="#3771C8"/>
<stop offset="1" stop-color="#6600FF" stop-opacity="0"/>
</radialGradient>
</defs>
</svg>
