<svg width="18" height="19" viewBox="0 0 18 19" fill="none" xmlns="http://www.w3.org/2000/svg">
<path d="M0 3.48389C0 1.82703 1.34095 0.483887 2.9951 0.483887H14.6299C16.284 0.483887 17.625 1.82703 17.625 3.48389V15.4839C17.625 17.1407 16.284 18.4839 14.6299 18.4839H2.9951C1.34095 18.4839 0 17.1407 0 15.4839V3.48389Z" fill="#0077B5"/>
<path d="M7.62065 8.03461H8.67303V8.48572L10.0988 8.81095C10.2481 8.5008 10.9363 7.79095 11.9795 7.79095C12.575 7.79095 13.1437 7.97228 13.5585 8.36687C13.9627 8.75148 14.3107 9.42437 14.3107 10.592V15.2035H13.1567V11.2187C13.1567 10.4363 12.998 9.77276 12.5987 9.2981C12.1773 8.7972 11.6045 8.64088 11.0842 8.64088C10.4956 8.64088 9.90443 8.87011 9.46347 9.33766C9.01947 9.80844 8.77466 10.4691 8.77466 11.2535V15.2035H7.62065V8.03461ZM3.94927 5.32681C3.52247 5.32681 3.16919 5.00525 3.16919 4.5104C3.16919 4.01523 3.52291 3.69336 3.94927 3.69336C4.37578 3.69336 4.72947 4.01527 4.72947 4.5104C4.72947 5.00521 4.37622 5.32681 3.94927 5.32681ZM4.52621 8.02792V15.1968H3.37233V8.02792H4.52621Z" fill="white" stroke="white" stroke-width="1.5"/>
</svg>
