<svg width="218" height="46" viewBox="0 0 218 46" fill="none" xmlns="http://www.w3.org/2000/svg">
<g clip-path="url(#clip0_7367_1464)">
<path d="M86.7247 23.1056C85.4934 26.2677 83.8952 28.7644 81.1995 30.493C78.5382 32.2249 74.7416 33.1887 69.0175 33.1887C63.2935 33.1887 52.8743 32.7874 55.4397 20.4751C57.9707 8.15931 68.6197 7.76147 74.3094 7.76147C79.9992 7.76147 88.4875 8.46112 87.8221 17.9131H77.2383C77.3378 16.2155 76.7067 13.753 73.0782 13.753C69.2165 13.753 66.4213 15.6496 65.4233 20.4751C64.3567 25.3005 66.3562 27.1971 69.8166 27.1971C72.7798 27.1971 74.8102 26.0002 76.1409 23.1021H86.7247V23.1056Z" fill="#E72B2D"/>
<path d="M121.309 23.1056C120.078 26.2677 118.479 28.7644 115.784 30.493C113.122 32.2249 109.326 33.1887 103.602 33.1887C97.8777 33.1887 87.4586 32.7874 90.0239 20.4751C92.555 8.15931 103.204 7.76147 108.894 7.76147C114.583 7.76147 123.072 8.46112 122.406 17.9131H111.823C111.922 16.2155 111.291 13.753 107.662 13.753C103.801 13.753 101.006 15.6496 100.008 20.4751C98.9409 25.3005 100.94 27.1971 104.401 27.1971C107.364 27.1971 109.394 26.0002 110.725 23.1021H121.309V23.1056Z" fill="#E72B2D"/>
<path d="M128.333 8.59155H153.595L152.398 14.3842H136.523L135.857 17.5806H150.601L149.404 23.3732H134.661L133.995 26.5696H149.871L148.674 32.3622H123.411L128.336 8.59841L128.333 8.59155Z" fill="#E72B2D"/>
<path d="M159.82 22.2722C155.392 21.5726 154.027 18.9112 154.727 15.581C156.058 9.42485 162.382 7.75806 170.102 7.75806C180.72 7.75806 184.448 10.5189 183.748 15.5467H172.832C173.065 14.583 172.633 14.0171 171.8 13.6501C171.035 13.2832 170.003 13.1494 168.97 13.1494C166.175 13.1494 165.108 13.8148 164.875 14.8471C164.742 15.5124 164.94 15.9446 165.839 16.0783L176.721 17.7417C181.283 18.4413 183.745 20.6363 182.946 24.6661C181.715 30.4896 176.423 33.1852 165.873 33.1852C158.719 33.1852 150.93 32.1872 152.395 25.1977H163.713C163.579 25.9625 163.812 26.5283 164.378 26.8953C164.978 27.228 166.01 27.396 167.441 27.396C170.37 27.396 171.333 26.6312 171.601 25.4652C171.734 24.7655 171.433 24.1002 170.236 23.867L159.817 22.2688L159.82 22.2722Z" fill="#E72B2D"/>
<path d="M192.504 22.2722C188.077 21.5726 186.712 18.9112 187.411 15.581C188.742 9.42485 195.066 7.75806 202.786 7.75806C213.404 7.75806 217.132 10.5189 216.433 15.5467H205.516C205.75 14.583 205.317 14.0171 204.484 13.6501C203.719 13.2832 202.687 13.1494 201.655 13.1494C198.859 13.1494 197.793 13.8148 197.56 14.8471C197.426 15.5124 197.625 15.9446 198.523 16.0783L209.406 17.7417C213.964 18.4413 216.429 20.6363 215.63 24.6661C214.399 30.4896 209.107 33.1852 198.558 33.1852C191.4 33.1852 183.615 32.1872 185.079 25.1977H196.397C196.263 25.9625 196.496 26.5283 197.062 26.8953C197.663 27.228 198.691 27.396 200.125 27.396C203.054 27.396 204.018 26.6312 204.285 25.4652C204.419 24.7655 204.12 24.1002 202.92 23.867L192.501 22.2688L192.504 22.2722Z" fill="#E72B2D"/>
<path d="M74.6697 40.1714H78.6584L77.8215 44.2218H76.6177L76.4291 43.5736C75.5649 44.2218 74.608 44.4687 72.9858 44.4687C71.0172 44.4687 68.4484 43.9817 69.1275 40.6995C69.7654 37.5854 72.4199 36.8687 74.56 36.8687C77.6946 36.8687 78.9876 37.7261 78.8264 39.554H75.6643C75.6643 39.1871 75.5066 38.9573 75.2665 38.827C75.0264 38.6966 74.7177 38.6589 74.3508 38.6589C73.195 38.6589 72.3616 39.2248 72.0632 40.6687C71.7854 41.9925 72.3307 42.6784 73.7334 42.6784C74.6491 42.6784 75.1773 42.3286 75.486 41.7833H74.3336L74.6732 40.1714H74.6697Z" fill="#E72B2D"/>
<path d="M80.7745 37.1155H86.6838C87.4897 37.1155 87.9562 37.1841 88.3163 37.3727C88.7827 37.6402 89.0811 38.309 88.9233 39.0944C88.7655 39.77 88.3746 40.4765 87.4897 40.7166L87.4794 40.7372C87.8773 40.8572 88.1345 41.2036 88.0556 41.8312L87.8567 43.3848C87.8155 43.7038 87.8876 43.9919 88.035 44.2216H84.9724C84.9038 44.0227 84.9724 43.6832 85.1027 42.8772C85.1816 42.3491 85.0616 42.0301 84.5471 42.0301H82.5579L82.1087 44.2182H79.3032L80.7745 37.1155ZM82.9318 40.2399H84.9209C85.4765 40.2399 85.7475 40.0204 85.8366 39.5745C85.9464 39.0292 85.6274 38.9092 85.161 38.9092H83.2096L82.9318 40.2433V40.2399Z" fill="#E72B2D"/>
<path d="M95.069 36.8687C96.7701 36.8687 99.8945 36.9887 99.1365 40.6687C98.3786 44.3486 95.1856 44.4687 93.4845 44.4687C91.7834 44.4687 88.659 44.3486 89.4273 40.6687C90.1818 36.9887 93.3679 36.8687 95.069 36.8687ZM93.8652 42.6784C95.0176 42.6784 95.8338 42.1125 96.1528 40.6687C96.4511 39.2248 95.8441 38.6589 94.702 38.6589C93.56 38.6589 92.7129 39.2248 92.4145 40.6687C92.0955 42.1125 92.7129 42.6784 93.8652 42.6784Z" fill="#E72B2D"/>
<path d="M100.913 37.1155H103.719L102.824 41.4128C102.635 42.3285 103.101 42.6166 104.017 42.6166C104.933 42.6166 105.519 42.3285 105.708 41.4128L106.603 37.1155H109.408L108.493 41.5225C108.016 43.7792 106.514 44.4686 103.629 44.4686C100.745 44.4686 99.5208 43.7827 99.9975 41.5225L100.913 37.1155Z" fill="#E72B2D"/>
<path d="M110.832 37.1155H116.621C118.6 37.1155 119.169 38.0106 118.83 39.5917C118.562 40.9532 117.595 42.0095 115.626 42.0095H112.622L112.166 44.2182H109.36L110.832 37.1155ZM112.979 40.281H114.789C115.506 40.281 115.805 40.0615 115.914 39.5436C116.034 38.9983 115.815 38.7891 115.098 38.7891H113.287L112.979 40.281Z" fill="#E72B2D"/>
<path d="M124.673 37.1155H128.624L128.933 41.2447H128.954L130.974 37.1155H134.925L133.453 44.2182H130.905L131.961 39.1458H131.941L129.393 44.2182H127.263L126.824 39.1458H126.803L125.75 44.2182H123.202L124.673 37.1155Z" fill="#E72B2D"/>
<path d="M136.519 37.1155H139.325L137.854 44.2182H135.048L136.519 37.1155Z" fill="#E72B2D"/>
<path d="M140.926 37.1155H146.386C148.804 37.1155 149.857 38.0518 149.332 40.6686C148.815 43.1653 147.333 44.2216 144.977 44.2216H139.455L140.926 37.1189V37.1155ZM142.627 42.428H144.239C145.522 42.428 146.17 41.79 146.407 40.6686C146.637 39.5436 146.256 38.9092 144.973 38.9092H143.361L142.624 42.4314L142.627 42.428Z" fill="#E72B2D"/>
<path d="M151.26 37.1155H156.72C159.138 37.1155 160.191 38.0518 159.666 40.6686C159.148 43.1653 157.666 44.2216 155.31 44.2216H149.789L151.26 37.1189V37.1155ZM152.961 42.428H154.573C155.856 42.428 156.504 41.79 156.74 40.6686C156.97 39.5436 156.59 38.9092 155.307 38.9092H153.695L152.958 42.4314L152.961 42.428Z" fill="#E72B2D"/>
<path d="M161.593 37.1155H164.399L163.315 42.3079H167.664L167.276 44.2182H160.122L161.593 37.1155Z" fill="#E72B2D"/>
<path d="M169.711 37.1155H177.263L176.907 38.8474H172.16L171.961 39.8043H176.368L176.011 41.5363H171.604L171.406 42.4897H176.152L175.795 44.2216H168.243L169.715 37.1189L169.711 37.1155Z" fill="#E72B2D"/>
<path d="M182.638 37.1155H190.19L189.833 38.8474H185.086L184.887 39.8043H189.294L188.938 41.5363H184.531L184.332 42.4897H189.078L188.722 44.2216H181.17L182.641 37.1189L182.638 37.1155Z" fill="#E72B2D"/>
<path d="M193.321 37.1155H196.764L198.318 44.2182H195.334L195.204 43.402H192.278L191.812 44.2182H188.828L193.324 37.1155H193.321ZM194.603 39.2658H194.583L193.249 41.6734H194.939L194.6 39.2658H194.603Z" fill="#E72B2D"/>
<path d="M201.078 41.2071C199.755 40.9979 199.346 40.2022 199.556 39.2077C199.954 37.3659 201.843 36.8687 204.151 36.8687C207.324 36.8687 208.438 37.6952 208.229 39.1974H204.968C205.036 38.9093 204.909 38.7412 204.659 38.6315C204.429 38.5217 204.121 38.4806 203.812 38.4806C202.975 38.4806 202.656 38.6795 202.587 38.9882C202.546 39.1871 202.608 39.3174 202.876 39.3551L206.13 39.8524C207.492 40.0616 208.229 40.7167 207.989 41.9205C207.622 43.6627 206.038 44.4687 202.886 44.4687C200.746 44.4687 198.42 44.1703 198.856 42.0817H202.238C202.197 42.3115 202.269 42.4795 202.437 42.5893C202.615 42.6887 202.924 42.7402 203.352 42.7402C204.227 42.7402 204.515 42.5104 204.597 42.164C204.638 41.9548 204.546 41.7559 204.189 41.6873L201.075 41.2105L201.078 41.2071Z" fill="#E72B2D"/>
<path d="M211.611 38.9057H209.015L209.382 37.1155H217.379L217.013 38.9057H214.416L213.312 44.2182H210.507L211.611 38.9057Z" fill="#E72B2D"/>
<path d="M49.1258 1.21106C45.9396 0.542284 39.5023 -0.534616 27.8827 2.65836C16.2597 5.85133 7.4662 12.834 3.05915 20.0568C-1.34791 27.2796 -1.71488 36.1246 6.80772 41.6394C14.1334 46.3825 25.9724 45.8201 32.427 44.726C32.427 44.726 32.4304 44.726 32.4338 44.726C33.0546 44.6026 33.8057 44.4585 34.6562 44.2802C36.2647 43.9441 39.2313 43.169 41.4023 42.5139V42.147C31.5558 45.0244 8.60484 45.1307 5.84399 30.5651C2.78821 14.4562 28.3629 0.641743 43.8853 1.3894C43.8853 1.3894 47.5653 1.45456 51.451 2.37027V1.88669C50.748 1.62604 49.9111 1.37568 49.1223 1.21106H49.1258Z" fill="#E72B2D"/>
<path d="M37.1153 7.08252H51.4511L51.4546 32.52H41.8722L41.8791 29.5294L28.1915 29.5225L33.648 23.7916H41.8722L41.8791 12.4293L20.6943 32.5989H9.98364L37.1153 7.08252Z" fill="#E72B2D"/>
</g>
<defs>
<clipPath id="clip0_7367_1464">
<rect width="217.383" height="45" fill="white" transform="translate(0 0.483887)"/>
</clipPath>
</defs>
</svg>
