<svg width="218" height="45" viewBox="0 0 218 45" fill="none" xmlns="http://www.w3.org/2000/svg">
<path d="M86.7282 22.6236H76.1439C74.8131 25.5184 72.7827 26.7188 69.8193 26.7188C66.3587 26.7188 64.3591 24.8221 65.4258 19.9964C66.4239 15.1707 69.2191 13.2741 73.0811 13.2741C76.7098 13.2741 77.3409 15.7366 77.2414 17.4344H87.8257C88.4911 7.9819 80.0367 7.28223 74.3124 7.28223C68.5881 7.28223 57.9695 7.68351 55.4417 19.9964C52.8797 32.3128 63.3302 32.7106 69.0202 32.7106C74.7102 32.7106 78.5378 31.7469 81.2028 30.0148C83.8986 28.2828 85.4969 25.7893 86.7282 22.6271V22.6236Z" fill="white"/>
<path d="M103.606 32.7072C109.33 32.7072 113.124 31.7434 115.789 30.0114C118.485 28.2793 120.083 25.7859 121.314 22.6236H110.73C109.399 25.5184 107.369 26.7188 104.405 26.7188C100.945 26.7188 98.9451 24.8221 100.012 19.9964C101.01 15.1707 103.805 13.2741 107.667 13.2741C111.296 13.2741 111.927 15.7366 111.827 17.4344H122.412C123.077 7.9819 114.623 7.28223 108.898 7.28223C103.174 7.28223 92.5554 7.68351 90.0276 19.9964C87.4656 32.3128 97.9161 32.7106 103.606 32.7106V32.7072Z" fill="white"/>
<path d="M149.874 26.0843H133.998L134.663 22.8878H149.408L150.605 17.0983H135.86L136.525 13.9017H152.402L153.602 8.10883H128.339L123.413 31.8738H148.674L149.874 26.0843Z" fill="white"/>
<path d="M182.958 24.1876C183.757 20.1611 181.294 17.9626 176.733 17.2629L165.85 15.5995C164.951 15.4657 164.752 15.0335 164.886 14.3682C165.119 13.3358 166.186 12.6704 168.981 12.6704C170.014 12.6704 171.046 12.8042 171.811 13.1712C172.644 13.5382 173.076 14.1041 172.843 15.0678H183.76C184.46 10.0432 180.732 7.27881 170.113 7.27881C162.393 7.27881 156.068 8.94225 154.737 15.1021C154.038 18.4325 155.403 21.094 159.831 21.7936L170.25 23.3919C171.447 23.6251 171.749 24.2905 171.615 24.9902C171.348 26.1563 170.384 26.9212 167.455 26.9212C166.025 26.9212 164.992 26.7531 164.392 26.4204C163.826 26.0534 163.593 25.4875 163.727 24.7227H152.409C150.944 31.7126 158.733 32.7106 165.888 32.7106C176.438 32.7106 181.73 30.0148 182.961 24.1911L182.958 24.1876Z" fill="white"/>
<path d="M198.57 32.7072C209.12 32.7072 214.412 30.0114 215.643 24.1876C216.443 20.1611 213.98 17.9626 209.418 17.2629L198.536 15.5995C197.637 15.4657 197.438 15.0335 197.572 14.3682C197.805 13.3358 198.868 12.6704 201.667 12.6704C202.699 12.6704 203.732 12.8042 204.497 13.1712C205.33 13.5382 205.762 14.1041 205.529 15.0678H216.446C217.146 10.0432 213.417 7.27881 202.799 7.27881C195.078 7.27881 188.754 8.94225 187.423 15.1021C186.724 18.4325 188.089 21.094 192.516 21.7936L202.936 23.3919C204.133 23.6251 204.435 24.2905 204.301 24.9902C204.034 26.1563 203.07 26.9212 200.141 26.9212C198.711 26.9212 197.678 26.7531 197.078 26.4204C196.512 26.0534 196.279 25.4875 196.413 24.7227H185.094C183.63 31.7126 191.419 32.7106 198.573 32.7106L198.57 32.7072Z" fill="white"/>
<path d="M79.5599 39.3953H76.0821L76.6515 36.6652H73.5578L71.9355 44.4988H75.0292L75.6774 41.3708H79.1552L78.507 44.4988H81.6041L83.2264 36.6652H80.1327L79.5599 39.3953Z" fill="white"/>
<path d="M83.3706 44.4988H86.4643L88.09 36.6652H84.9963L83.3706 44.4988Z" fill="white"/>
<path d="M98.1768 36.9499C97.7824 36.7406 97.2645 36.6652 96.3762 36.6652H89.8562L88.2305 44.5022H91.3241L91.818 42.0877H94.0131C94.5824 42.0877 94.7162 42.4375 94.627 43.0206C94.483 43.9089 94.4075 44.2827 94.483 44.5022H97.8647C97.7001 44.2484 97.6246 43.9329 97.6658 43.5796L97.8853 41.8682C97.9745 41.1754 97.6864 40.7912 97.2474 40.6609L97.2577 40.6403C98.2351 40.3762 98.6639 39.5977 98.8388 38.85C99.0137 37.9822 98.6844 37.2483 98.17 36.9499H98.1768ZM95.4433 39.3747C95.3438 39.8686 95.0489 40.1087 94.4349 40.1087H92.2399L92.5486 38.6373H94.699C95.2135 38.6373 95.5668 38.7676 95.4467 39.3713L95.4433 39.3747Z" fill="white"/>
<path d="M99.0103 44.4988H107.341L107.736 42.5884H102.498L102.718 41.5355H107.581L107.976 39.6251H103.116L103.335 38.5721H108.569L108.963 36.6652H100.633L99.0103 44.4988Z" fill="white"/>
<path d="M119.62 41.2165H119.599L119.26 36.6652H114.901L113.278 44.4988H116.087L117.25 38.9014H117.274L117.754 44.4988H120.104L122.913 38.9014H122.937L121.77 44.4988H124.583L126.205 36.6652H121.849L119.62 41.2165Z" fill="white"/>
<path d="M126.349 44.4988H129.443L131.068 36.6652H127.975L126.349 44.4988Z" fill="white"/>
<path d="M138.861 36.6652H132.835L131.209 44.5022H137.3C139.9 44.5022 141.536 43.3395 142.105 40.5854C142.688 37.6976 141.522 36.6686 138.857 36.6686L138.861 36.6652ZM138.881 40.582C138.617 41.8236 137.904 42.5233 136.487 42.5233H134.711L135.524 38.6373H137.3C138.717 38.6373 139.132 39.3404 138.881 40.5786V40.582Z" fill="white"/>
<path d="M150.265 36.6652H144.239L142.613 44.5022H148.704C151.304 44.5022 152.94 43.3395 153.509 40.5854C154.093 37.6976 152.926 36.6686 150.261 36.6686L150.265 36.6652ZM150.285 40.582C150.021 41.8236 149.308 42.5233 147.891 42.5233H146.115L146.928 38.6373H148.704C150.121 38.6373 150.536 39.3404 150.285 40.5786V40.582Z" fill="white"/>
<path d="M158.736 36.6652H155.643L154.017 44.4988H161.909L162.338 42.3929H157.539L158.736 36.6652Z" fill="white"/>
<path d="M162.972 44.4988H171.303L171.698 42.5884H166.464L166.683 41.5355H171.543L171.941 39.6251H167.078L167.297 38.5721H172.531L172.929 36.6652H164.598L162.972 44.4988Z" fill="white"/>
<path d="M180.732 42.5884L180.951 41.5355H185.811L186.209 39.6251H181.346L181.565 38.5721H186.799L187.193 36.6652H178.866L177.24 44.4988H185.571L185.966 42.5884H180.732Z" fill="white"/>
<path d="M190.654 36.6652L185.695 44.5022H188.987L189.502 43.6036H192.729L192.873 44.5022H196.166L194.454 36.6652H190.657H190.654ZM190.575 41.6898L192.047 39.0352H192.067L192.441 41.6898H190.575Z" fill="white"/>
<path d="M202.603 36.3874C200.059 36.3874 197.973 36.9361 197.534 38.9666C197.304 40.0641 197.754 40.9421 199.215 41.1719L202.648 41.7001C203.042 41.7755 203.142 41.9951 203.097 42.2283C203.008 42.6124 202.693 42.8662 201.725 42.8662C201.252 42.8662 200.913 42.8113 200.717 42.7016C200.532 42.5815 200.453 42.3929 200.498 42.1425H196.766C196.282 44.4473 198.851 44.7766 201.211 44.7766C204.689 44.7766 206.435 43.8883 206.843 41.9676C207.107 40.6403 206.294 39.9166 204.792 39.6834L201.204 39.1346C200.909 39.09 200.841 38.9494 200.885 38.7299C200.961 38.3904 201.314 38.1708 202.236 38.1708C202.576 38.1708 202.916 38.2154 203.169 38.3355C203.444 38.4555 203.588 38.6442 203.509 38.9597H207.11C207.34 37.3031 206.112 36.3908 202.61 36.3908L202.603 36.3874Z" fill="white"/>
<path d="M208.376 36.6652L207.971 38.6373H210.835L209.617 44.4988H212.711L213.932 38.6373H216.796L217.201 36.6652H208.376Z" fill="white"/>
<path d="M27.8801 2.17531C16.26 5.36843 7.46607 12.3515 3.0588 19.5746C-1.34846 26.7977 -1.71545 35.6431 6.80755 41.1582C14.1336 45.9016 25.9732 45.3391 32.428 44.245C32.428 44.245 32.4314 44.245 32.4349 44.245C33.0557 44.1215 33.8068 43.9775 34.6574 43.7991C36.2659 43.463 39.2327 42.6879 41.4037 42.0328V41.6658C31.5568 44.5434 8.60476 44.6497 5.84379 30.0834C2.78785 13.9738 28.3637 0.158596 43.8869 0.906288C43.8869 0.906288 47.5671 0.971454 51.453 1.88721V1.40361C50.7499 1.14294 49.913 0.892569 49.1242 0.727939C45.9379 0.0591322 39.5002 -1.01782 27.8767 2.17531H27.8801Z" fill="white"/>
<path d="M37.1166 6.59973L9.98364 32.1173H20.6948L41.8806 11.9468L41.8737 23.3096H33.6491L28.1923 29.0408L41.8806 29.0476L41.8737 32.0384H51.4565L51.4531 6.59973H37.1166Z" fill="white"/>
</svg>
