<svg width="20" height="19" viewBox="0 0 20 19" fill="none" xmlns="http://www.w3.org/2000/svg">
<path d="M9.99475 3.11401C9.99475 3.11401 4.30505 3.11402 2.87702 3.48509C2.1124 3.69873 1.48279 4.32834 1.26915 5.10421C0.89808 6.53225 0.898071 9.4896 0.898071 9.4896C0.898071 9.4896 0.89808 12.4582 1.26915 13.8637C1.48279 14.6396 2.10115 15.258 2.87702 15.4716C4.3163 15.8539 9.99475 15.8539 9.99475 15.8539C9.99475 15.8539 15.6957 15.8539 17.1237 15.4829C17.8996 15.2692 18.518 14.6621 18.7204 13.875C19.1027 12.4582 19.1027 9.50085 19.1027 9.50085C19.1027 9.50085 19.1139 6.53225 18.7204 5.10421C18.518 4.32834 17.8996 3.70999 17.1237 3.50759C15.6957 3.11403 9.99475 3.11401 9.99475 3.11401ZM8.18438 6.75726L12.9183 9.4896L8.18438 12.2107V6.75726Z" fill="#FF0000"/>
</svg>
